HIERARCHY
ROOT Hips
{
    OFFSET 0.0 0.0 0.0
    CHANNELS 6 Xposition Yposition Zposition Zrotation Xrotation Yrotation
    JOINT LeftUpLeg
    {
        OFFSET 16.070792936837933 0.0 0.0
        CHANNELS 3 Zrotation Xrotation Yrotation
        JOINT LeftLeg
        {
            OFFSET 0.0 0.0 -63.08615077701257
            CHANNELS 3 Zrotation Xrotation Yrotation
            JOINT LeftFoot
            {
                OFFSET 0.0 0.0 -49.882981476446034
                CHANNELS 3 Zrotation Xrotation Yrotation
                JOINT LeftToeBase
                {
                    OFFSET 0.0 -11.524252011934239 0.0
                    CHANNELS 3 Zrotation Xrotation Yrotation
                    End Site
                    {
                        OFFSET 0 0 0
                    }
                }
            }
        }
    }
    JOINT RightUpLeg
    {
        OFFSET -16.070792936837933 0.0 0.0
        CHANNELS 3 Zrotation Xrotation Yrotation
        JOINT RightLeg
        {
            OFFSET 0.0 0.0 -63.08615077701257
            CHANNELS 3 Zrotation Xrotation Yrotation
            JOINT RightFoot
            {
                OFFSET 0.0 0.0 -49.882981476446034
                CHANNELS 3 Zrotation Xrotation Yrotation
                JOINT RightToeBase
                {
                    OFFSET 0.0 -11.524252011934239 0.0
                    CHANNELS 3 Zrotation Xrotation Yrotation
                    End Site
                    {
                        OFFSET 0 0 0
                    }
                }
            }
        }
    }
    JOINT Spine
    {
        OFFSET 0.0 0.0 11.368004745329976
        CHANNELS 3 Zrotation Xrotation Yrotation
        JOINT Spine1
        {
            OFFSET 0.0 0.0 11.234223968697231
            CHANNELS 3 Zrotation Xrotation Yrotation
            JOINT Spine2
            {
                OFFSET 0.0 0.0 11.23422396869723
                CHANNELS 3 Zrotation Xrotation Yrotation
                JOINT Spine3
                {
                    OFFSET 0.0 0.0 11.234223968697227
                    CHANNELS 3 Zrotation Xrotation Yrotation
                    JOINT Spine4
                    {
                        OFFSET 0.0 0.0 11.234223968697233
                        CHANNELS 3 Zrotation Xrotation Yrotation
                        JOINT RightShoulder
                        {
                            OFFSET -26.554900887234652 0.0 0.0
                            CHANNELS 3 Zrotation Xrotation Yrotation
                            JOINT RightArm
                            {
                                OFFSET -31.663923081115293 0.0 0.0
                                CHANNELS 3 Zrotation Xrotation Yrotation
                                JOINT RightForeArm
                                {
                                    OFFSET -31.70893902390454 0.0 0.0
                                    CHANNELS 3 Zrotation Xrotation Yrotation
                                    JOINT RightHand
                                    {
                                        OFFSET -11.549595102158229 0.0 0.0
                                        CHANNELS 3 Zrotation Xrotation Yrotation
                                        End Site
                                        {
                                            OFFSET 0 0 0
                                        }
                                    }
                                }
                            }
                        }
                        JOINT LeftShoulder
                        {
                            OFFSET 26.554900887234652 0.0 0.0
                            CHANNELS 3 Zrotation Xrotation Yrotation
                            JOINT LeftArm
                            {
                                OFFSET 31.663923081115293 0.0 0.0
                                CHANNELS 3 Zrotation Xrotation Yrotation
                                JOINT LeftForeArm
                                {
                                    OFFSET 31.70893902390454 0.0 0.0
                                    CHANNELS 3 Zrotation Xrotation Yrotation
                                    JOINT LeftHand
                                    {
                                        OFFSET 11.549595102158229 0.0 0.0
                                        CHANNELS 3 Zrotation Xrotation Yrotation
                                        End Site
                                        {
                                            OFFSET 0 0 0
                                        }
                                    }
                                }
                            }
                        }
                        JOINT Neck
                        {
                            OFFSET 0.0 0.0 11.2342239456822
                            CHANNELS 3 Zrotation Xrotation Yrotation
                            JOINT Head
                            {
                                OFFSET 0.0 0.0 26.61986423325094
                                CHANNELS 3 Zrotation Xrotation Yrotation
                                End Site
                                {
                                    OFFSET 0 0 0
                                }
                            }
                        }
                    }
                }
            }
        }
    }
}
MOTION
Frames: 7
Frame Time: 0.03333333333333333
35.23741110563279 -1.2302382688969373 465.85271930694586 15.55755990608427 -56.2969766538423 16.646660026668577 15.047410841851619 -37.50821797184252 -12.107941590316461 6.565724087159699 -2.961710640276983 40.68725119052377 159.00033763469676 2.8624992133171654e-14 33.13544004319963 0.0 0.0 -1.5902773407317584e-15 -0.6792753367547386 -27.443393196332096 15.290171866474255 -24.716144016366258 -13.44051966560253 -31.47336301842513 110.18797330689569 -6.3611093629270335e-15 -83.67113985635606 0.0 0.0 0.0 0.22735644788675158 -34.73004245432117 0.33464006276816416 7.951386703658792e-16 0.0 0.0 7.951386703658792e-16 0.0 0.0 7.951386703658792e-16 0.0 0.0 7.951386703658792e-16 0.0 0.0 93.21474223382269 -25.284446690591366 -127.66219717094518 67.78973216379343 -8.332858269512216e-15 1.3261776994180484e-14 -5.2084031515386695e-15 -65.70552340491773 -7.149449845830513e-15 -1.5902773407317584e-15 0.0 0.0 -148.0275951485587 -0.18732775821624958 152.969474178809 -113.21081921117056 -2.2994139977627625e-14 1.1349222528655178e-14 -180.0 -61.72640905205257 -180.0 3.975693351829396e-16 3.4483642953516864e-33 9.93923337957349e-16 -1.2893067219342405 3.27973940945633e-15 3.6902966914873524e-17 1.5902773407317582e-15 -4.9696166897867443e-17 6.896728590703373e-34
35.23741110563279 -1.2302382688969373 465.85271930694586 15.55755990608427 -56.2969766538423 16.646660026668577 15.047410841851619 -37.50821797184252 -12.107941590316461 6.565724087159699 -2.961710640276983 40.68725119052377 159.00033763469676 2.8624992133171654e-14 33.13544004319963 0.0 0.0 -1.5902773407317584e-15 -0.6792753367547386 -27.443393196332096 15.290171866474255 -24.716144016366258 -13.44051966560253 -31.47336301842513 110.18797330689569 -6.3611093629270335e-15 -83.67113985635606 0.0 0.0 0.0 0.22735644788675158 -34.73004245432117 0.33464006276816416 7.951386703658792e-16 0.0 0.0 7.951386703658792e-16 0.0 0.0 7.951386703658792e-16 0.0 0.0 7.951386703658792e-16 0.0 0.0 93.21474223382269 -25.284446690591366 -127.66219717094518 67.78973216379343 -8.332858269512216e-15 1.3261776994180484e-14 -5.2084031515386695e-15 -65.70552340491773 -7.149449845830513e-15 -1.5902773407317584e-15 0.0 0.0 -148.0275951485587 -0.18732775821624958 152.969474178809 -113.21081921117056 -2.2994139977627625e-14 1.1349222528655178e-14 -180.0 -61.72640905205257 -180.0 3.975693351829396e-16 3.4483642953516864e-33 9.93923337957349e-16 -1.2893067219342405 3.27973940945633e-15 3.6902966914873524e-17 1.5902773407317582e-15 -4.9696166897867443e-17 6.896728590703373e-34
35.23741110563279 -1.2302382688969373 465.85271930694586 15.55755990608427 -56.2969766538423 16.646660026668577 15.047410841851619 -37.50821797184252 -12.107941590316461 6.565724087159699 -2.961710640276983 40.68725119052377 159.00033763469676 2.8624992133171654e-14 33.13544004319963 0.0 0.0 -1.5902773407317584e-15 -0.6792753367547386 -27.443393196332096 15.290171866474255 -24.716144016366258 -13.44051966560253 -31.47336301842513 110.18797330689569 -6.3611093629270335e-15 -83.67113985635606 0.0 0.0 0.0 0.22735644788675158 -34.73004245432117 0.33464006276816416 7.951386703658792e-16 0.0 0.0 7.951386703658792e-16 0.0 0.0 7.951386703658792e-16 0.0 0.0 7.951386703658792e-16 0.0 0.0 93.21474223382269 -25.284446690591366 -127.66219717094518 67.78973216379343 -8.332858269512216e-15 1.3261776994180484e-14 -5.2084031515386695e-15 -65.70552340491773 -7.149449845830513e-15 -1.5902773407317584e-15 0.0 0.0 -148.0275951485587 -0.18732775821624958 152.969474178809 -113.21081921117056 -2.2994139977627625e-14 1.1349222528655178e-14 -180.0 -61.72640905205257 -180.0 3.975693351829396e-16 3.4483642953516864e-33 9.93923337957349e-16 -1.2893067219342405 3.27973940945633e-15 3.6902966914873524e-17 1.5902773407317582e-15 -4.9696166897867443e-17 6.896728590703373e-34
35.22649998664856 -1.2193743824958803 465.8444103240967 15.439580720299555 -56.27217365323041 16.428089130854836 15.079659873715718 -37.47181233837963 -11.991872686922171 6.780312155488864 -3.05286072948463 40.52082449330075 159.70162658855926 5.565970692561154e-15 32.01044968528876 0.0 0.0 0.0 -0.5852285008779227 -27.48833519195275 15.400918884938836 -24.747932098988663 -13.45395536207227 -31.466113767020737 110.02351604820483 3.1805546814635168e-15 -83.64753937340757 0.0 0.0 0.0 0.3316005888303452 -34.77478974138023 0.5039265938352385 7.951386703658792e-16 0.0 0.0 7.951386703658792e-16 0.0 0.0 7.951386703658792e-16 0.0 0.0 7.951386703658792e-16 0.0 0.0 93.28260396800549 -25.868813345004323 -126.90467591710102 67.77756628983639 -1.7336494535404255e-15 8.827337323704977e-15 7.671646530361641e-15 -64.73746838337519 4.862704595878204e-15 0.0 0.0 0.0 -147.37110877871945 -0.7570724769822452 152.81790419756973 -112.59383182142304 -7.936639130363392e-15 1.1028392757190886e-14 180.0 -61.667752112285655 180.0 -1.987846675914698e-16 2.2414367919785963e-33 -1.2921003393445538e-15 -1.7034046113314656 4.590353957754012e-16 -7.884024606050743e-16 0.0 0.0 0.0
35.2144135594368 -1.1786110941320658 465.8375816345215 15.329043379334166 -56.23621182536349 16.25798622844472 15.121373793925327 -37.47060369029954 -11.899877903382816 6.916369993946854 -3.103743548943475 40.49670995151587 161.10737222734377 -1.5902773407317584e-15 31.7930638126541 0.0 0.0 -1.5902773407317584e-15 -0.48529941590016373 -27.529405279156748 15.456594838428943 -24.818758621910803 -13.481273016759262 -31.42346841891578 109.98862709807779 -3.1805546814635168e-15 -83.64271165185994 6.361109362927032e-15 -8.827812596100317e-32 -1.590277340731758e-15 0.41254600067303965 -34.829357845442495 0.6077721315174456 0.0 0.0 0.0 0.0 0.0 0.0 0.0 0.0 0.0 0.0 0.0 0.0 93.38224566919929 -25.947650847521835 -126.72918185602579 67.78681277186614 3.5472700106538767e-15 5.280207173836421e-15 -5.9119963977945134e-15 -64.79513907167686 -3.751515224609811e-15 0.0 0.0 0.0 -146.68504611369127 -1.34574906062683 152.5218678791762 -111.8252443066389 -5.347688214759858e-15 -7.902251798932627e-15 -180.0 -61.216785041769825 -180.0 -1.5902773407317584e-15 2.0690185772110117e-32 -1.4908850069360234e-15 -2.064343836492198 8.063796189292623e-15 -6.499843325636613e-16 0.0 -2.484808344893373e-17 0.0
35.200250351428984 -1.1174540229141714 465.8289081573486 15.179490439188287 -56.190448805642774 16.029542151966393 15.163283277804927 -37.463777386313964 -11.785122249002733 7.061759510957212 -3.1552066986774467 40.438252811141965 162.38492201331755 0.0 31.25144746206199 0.0 0.0 7.951386703658792e-16 -0.36066408226389995 -27.587468320575738 15.524905190517119 -24.90295950430435 -13.510336190594828 -31.363536706325117 109.96201251233013 -1.5902773407317584e-14 -83.64105952465174 0.0 0.0 0.0 0.5155744229679785 -34.89987063015589 0.7395527087698952 0.0 0.0 0.0 0.0 0.0 0.0 0.0 0.0 0.0 0.0 0.0 0.0 93.47215090237783 -26.04186796688841 -126.5770109724821 67.76319001896566 -7.506885175879803e-15 -2.621302246456505e-15 -1.1250583822443247e-14 -64.84524576480078 -7.146070455845053e-15 0.0 6.361109362927032e-15 0.0 -145.67358525750117 -1.6892295532267716 152.17869810031365 -110.70745589866354 -2.112394026801991e-14 2.9993184614515576e-15 180.0 -60.548062821926216 180.0 1.987846675914698e-16 -7.758819664541295e-34 -4.472655020808071e-16 -2.479381678698074 -9.268033373892626e-16 -8.15380910668342e-16 -7.951386703658792e-16 0.0 0.0
35.183494770526885 -1.0414296716451645 465.81891803741456 14.996610632937942 -56.134775454180705 15.775926363446453 15.192350481272214 -37.4595918948322 -11.676391435878092 7.237323201065847 -3.2172470809699467 40.36839371775645 163.59380831677484 2.7034714792439894e-14 30.84611870462385 2.2069531490250793e-31 -6.361109362927035e-15 3.975693351829397e-15 -0.23072464174246413 -27.663152929906982 15.577844074232969 -24.987592542167242 -13.537033887219176 -31.29173788225041 109.97347540118295 0.0 -83.6543207834753 0.0 0.0 0.0 0.6234904529778882 -34.98603150761928 0.860650454569122 0.0 0.0 0.0 0.0 0.0 0.0 0.0 0.0 0.0 0.0 0.0 0.0 93.55362017193637 -26.136993121926277 -126.44157011744566 67.70796200997755 1.7390109633837769e-15 -8.8262826559921e-15 1.979919325379798e-15 -64.94310605471217 1.2599661753998355e-15 1.5902773407317584e-15 0.0 0.0 -144.82902991659907 -1.9611416741462184 151.88749764087814 -109.75767549596378 -1.5895366923186132e-14 -4.852962206400513e-16 180.0 -59.902474352830176 180.0 -5.963540027744094e-16 -7.951386703658792e-16 9.93923337957349e-16 -2.7827702041653923 -1.2588730513037977e-14 4.896051818163562e-16 0.0 0.0 0.0
